<?xml version="1.0" encoding="UTF-8"?>
<svg id="Layer_1" xmlns="http://www.w3.org/2000/svg" version="1.1" viewBox="0 0 1134.88 630.89">
  <!-- Generator: Adobe Illustrator 30.0.0, SVG Export Plug-In . SVG Version: 2.1.1 Build 123)  -->
  <defs>
    <style>
      .st0 {
        fill: #fff;
        stroke: #fff;
        stroke-miterlimit: 10;
        stroke-width: 15px;
      }
    </style>
  </defs>
  <path class="st0" d="M1038.58,518.44c-6.63,0-12-5.37-12-12s5.37-12,12-12h17.23c18.7,0,30.46-4.51,37.19-12.79,7.11-8.73,9.79-22.48,9.79-40.14v-138.7c0-34.92-10.12-56.07-27.92-70.73-18.89-15.57-47.29-25.16-81.6-35.88-2.42-.75-4.44-2.21-5.89-4.07l-103.4-117.66c-17.9-20.54-29.25-31.45-42.02-36.86-12.8-5.42-29.05-6.12-56.47-6.12h-208.53c-22.51,0,6.16-.03-8.89-.06-49.39-.09-72.71-.14-109.07,32.08-.16.14-.32.27-.48.4v.02s-94.27,75-94.27,75c-8.34,6.64-13.75,11.07-18.34,14.84-13.57,11.14-21.14,17.35-30.87,21.91-12.23,5.73-25.18,7.63-54.48,11.92l-.81.12c-76.54,11.21-133.95,29.37-172.24,54.48-36.17,23.73-54.86,53.76-56.05,90.11h.03v104.77c0,.22,0,.44-.02.65.69,22.25,3.38,37.29,9.33,46.17,4.92,7.34,13.36,10.53,26.43,10.53h70.44c6.63,0,12,5.37,12,12s-5.37,12-12,12h-70.44c-21.66,0-36.39-6.42-46.31-21.22-8.69-12.96-12.53-31.97-13.36-58.77-.05-.45-.08-.9-.08-1.37v-104.77h.04c0-.11,0-.22,0-.33,1.34-44.88,23.62-81.49,66.84-109.84,41.22-27.04,101.85-46.42,181.9-58.14l.81-.12c27.02-3.96,38.97-5.71,47.83-9.86,6.98-3.27,13.72-8.81,25.8-18.72,5.63-4.62,12.26-10.06,18.62-15.12l94.29-75h0c42.88-37.8,69.11-37.76,124.44-37.65,9.3.02-19.73-.04,8.89-.04h208.53c30.44,0,48.83.92,65.75,8.08,16.95,7.18,30.41,19.81,50.74,43.14l101.59,115.6c35.34,11.09,64.81,21.42,86.48,39.29,23.41,19.3,36.73,46.08,36.73,89.2v138.7c0,22.94-4.17,41.65-15.22,55.23-11.43,14.04-29.16,21.69-55.75,21.69h-17.23ZM412.9,518.44c-6.63,0-12-5.37-12-12s5.37-12,12-12h346.34c6.63,0,12,5.37,12,12s-5.37,12-12,12h-346.34Z"/>
  <path class="st0" d="M990.28,377.49c-23.52-23.52-56.02-38.07-91.92-38.07s-68.39,14.55-91.92,38.07c-23.52,23.52-38.07,56.02-38.07,91.92s14.55,68.39,38.07,91.92c23.52,23.52,56.02,38.07,91.92,38.07s68.39-14.55,91.92-38.07c23.52-23.52,38.07-56.02,38.07-91.92s-14.55-68.39-38.07-91.92M898.37,315.41c42.52,0,81.02,17.24,108.89,45.1,27.87,27.87,45.1,66.36,45.1,108.89s-17.24,81.02-45.1,108.89c-27.87,27.87-66.36,45.1-108.89,45.1s-81.02-17.24-108.89-45.1c-27.87-27.87-45.1-66.36-45.1-108.88s17.24-81.02,45.1-108.89c27.87-27.87,66.36-45.1,108.89-45.1Z"/>
  <path class="st0" d="M920.66,447.11c-5.71-5.71-13.59-9.23-22.3-9.23s-16.59,3.53-22.3,9.23c-5.71,5.7-9.23,13.59-9.23,22.3s3.53,16.59,9.23,22.3c5.71,5.71,13.59,9.23,22.3,9.23s16.59-3.53,22.3-9.23c5.7-5.7,9.23-13.59,9.23-22.3s-3.53-16.59-9.23-22.3M898.37,413.87c15.33,0,29.22,6.22,39.27,16.27,10.05,10.05,16.27,23.93,16.27,39.27s-6.22,29.22-16.27,39.26c-10.05,10.05-23.93,16.27-39.27,16.27s-29.22-6.22-39.27-16.27c-10.05-10.05-16.27-23.93-16.27-39.26s6.22-29.22,16.27-39.27c10.05-10.05,23.93-16.27,39.27-16.27Z"/>
  <path class="st0" d="M602.95,83.1c-.47,0-.3,0,0,0h0ZM602.95,59.16c-.22,0-.33.01,0,.02v-.02ZM619.74,169.58v-71.69h0c0-.1,0-.2,0-.31,0-3.35-1.47-6.84-4.13-9.54-2.84-2.89-7.04-4.87-12.33-4.94h-.33s0,0,0,0c.56.01,1.61.04,0,.04h-32.64c-18.17,0-27.6.27-34.41,2.46-6.49,2.08-12.55,6.58-23.53,14.93-.09.08-.18.16-.27.23l-99.04,82.94-.02-.02c-.1.09-.21.17-.31.25-1.78,1.39-2.97,3.27-3.49,5.24-.37,1.42-.38,2.84,0,4.08.32,1.03.96,1.97,1.94,2.67,1.68,1.21,4.35,1.97,8.17,1.97v-.05h181.89c8.49,0,12.99-1.69,15-4.88,2.82-4.46,3.5-12.61,3.5-23.39ZM643.74,97.89v71.69c0,14.9-1.4,26.89-7.25,36.14-6.65,10.53-17.4,16.13-35.25,16.13h-181.89v-.05c-9.24,0-16.6-2.49-22.14-6.47-5.47-3.93-9.04-9.18-10.84-14.95-1.74-5.57-1.79-11.58-.29-17.29,1.76-6.69,5.71-13.03,11.61-17.74v-.02s99.03-82.94,99.03-82.94c.39-.32.79-.62,1.2-.89,13.16-10,20.48-15.42,30.66-18.68,10.19-3.27,21.17-3.67,41.72-3.67h32.64c1.38,0,.46,0,0,.02v.02c.13,0,.33,0,.61.01,12.21.16,22.17,5,29.11,12.07,7.13,7.25,11.07,16.87,11.07,26.32,0,.1,0,.2,0,.31h0Z"/>
  <path class="st0" d="M675.91,174.22v-79.94h.05v-.23s0,0,0,0v-.05c0-9.99,4.48-18.74,11.24-24.97,6.33-5.82,14.82-9.48,23.54-9.81.43-.05.87-.07,1.31-.07h47.58c20.68,0,31.64.42,41.19,3.77,10.13,3.55,16.22,9.23,27.23,19.76.4.36.77.74,1.13,1.16l63.02,74.2h0c.06.08.13.16.19.23,8.03,10.03,11.43,20.1,11.34,29.19-.05,5.32-1.26,10.22-3.42,14.57-2.18,4.4-5.29,8.21-9.12,11.28-6.55,5.24-15.21,8.35-24.89,8.49-.36.03-.72.05-1.09.05h-146.27c-17.19,0-27.81-3.9-34.8-12.82-6.5-8.3-8.21-19.39-8.21-34.81M699.91,94.28v79.94c0,10.27.63,17,3.05,20.09,1.93,2.46,6.81,3.54,15.96,3.54h146.27c.33,0,.65.01.97.04,4.1-.11,7.57-1.28,10.01-3.24,1.15-.92,2.06-2.01,2.66-3.21.62-1.25.97-2.65.99-4.17.04-3.82-1.74-8.51-5.91-13.78l-62.62-73.72c-8.45-8.07-13.11-12.42-18.34-14.26-5.99-2.1-15.26-2.36-33.32-2.36h-47.58c-.24,0-.48,0-.72-.02-2.84.19-5.69,1.49-7.91,3.53-2.13,1.96-3.55,4.55-3.56,7.32v.25s0,.05,0,.05h.05Z"/>
  <path class="st0" d="M168.65,233.24c3.39-5.67,10.74-7.52,16.41-4.12,5.67,3.39,7.52,10.74,4.12,16.41-16.9,28.18-39.57,48.99-68.03,62.42-28.01,13.22-61.43,19.15-100.27,17.79-6.6-.21-11.79-5.73-11.58-12.33.21-6.6,5.73-11.79,12.33-11.58,34.99,1.22,64.76-3.96,89.3-15.54,24.1-11.37,43.34-29.05,57.72-53.05"/>
  <path class="st0" d="M1050.02,319.92c-6.63,0-12-5.37-12-12s5.37-12,12-12h65.35c6.63,0,12,5.37,12,12s-5.37,12-12,12h-65.35Z"/>
  <path class="st0" d="M366.81,377.49c-23.52-23.52-56.02-38.07-91.92-38.07s-68.39,14.55-91.92,38.07c-23.52,23.52-38.07,56.02-38.07,91.92s14.55,68.39,38.07,91.92c23.52,23.52,56.02,38.07,91.92,38.07s68.39-14.55,91.92-38.07c23.52-23.52,38.07-56.02,38.07-91.92s-14.55-68.39-38.07-91.92M274.89,315.41c42.52,0,81.02,17.24,108.89,45.1,27.87,27.87,45.1,66.36,45.1,108.89s-17.24,81.02-45.1,108.89c-27.87,27.87-66.36,45.1-108.89,45.1s-81.02-17.24-108.89-45.1c-27.87-27.87-45.1-66.36-45.1-108.89s17.24-81.02,45.1-108.89c27.87-27.87,66.36-45.1,108.89-45.1Z"/>
  <path class="st0" d="M297.19,447.11c-5.71-5.71-13.59-9.23-22.3-9.23s-16.59,3.53-22.3,9.23c-5.71,5.7-9.23,13.59-9.23,22.3s3.53,16.59,9.23,22.3c5.71,5.71,13.59,9.23,22.3,9.23s16.59-3.53,22.3-9.23c5.7-5.71,9.23-13.59,9.23-22.3s-3.53-16.59-9.23-22.3M274.89,413.87c15.33,0,29.22,6.22,39.27,16.27,10.05,10.05,16.27,23.93,16.27,39.27s-6.22,29.22-16.27,39.27c-10.05,10.05-23.93,16.27-39.27,16.27s-29.22-6.22-39.27-16.27c-10.05-10.05-16.27-23.93-16.27-39.27s6.22-29.22,16.27-39.27c10.05-10.05,23.93-16.27,39.27-16.27Z"/>
  <path class="st0" d="M540.07,288.39c-6.63,0-12-5.37-12-12s5.37-12,12-12h67.7c6.63,0,12,5.37,12,12s-5.37,12-12,12h-67.7Z"/>
</svg>