<?xml version="1.0" encoding="UTF-8"?>
<svg id="Layer_1" xmlns="http://www.w3.org/2000/svg" version="1.1" viewBox="0 0 2000 2000">
  <!-- Generator: Adobe Illustrator 30.0.0, SVG Export Plug-In . SVG Version: 2.1.1 Build 123)  -->
  <defs>
    <style>
      .st0 {
        fill: #b17c5d;
      }

      .st1 {
        fill: #1b3b5a;
      }
    </style>
  </defs>
  <path class="st0" d="M1421.1,477.23c.3-1.78-.78-3.51-2.55-3.91-39.38-8.76-73.27-11.74-114.38-17.06-299.17-38.76-625.94,179.36-713.47,511.97-.51,1.94.45,3.98,2.27,4.8.29.13.57.26.85.41,1.5.76,3.32.57,4.51-.62.12-.12.2-.19.2-.21,17.17-39.86,41.14-115.69,103.31-193.23,112.43-140.23,238.86-239.72,421.09-282.13,59.19-13.77,149.49-35.79,295.33-16.26,1.33.18,2.5-.92,2.63-2.25.05-.5.12-1,.2-1.5"/>
  <path class="st0" d="M1348.64,848.62c-1.06-2.88-9.04-6.37-10.41-6.95-20.07-10.03-41.72-16.9-62.66-23.54-8.71-2.76-17.72-5.62-26.49-8.67-13.63-4.73-27.41-9.02-41.31-12.82v-151.54c0-.73.01-1.42.02-2.13-14.98-2-29.94-4.21-44.85-6.73.14,3.33.21,6.83.21,10.58v139.47c-80.34-15.33-163.33-12.72-242.73,18.35-24.33,9.52-47.78,21.52-70.12,35.54v-175.88c-15.19,5.69-30.32,11.55-45.47,17.36v191.01c-58.74,47.37-107.09,108.57-139.58,173.35-.82,1.3-4.32,7.27-.96,9.93.52.39,1.22.64,1.91.71.28.03.56.02.82-.01,2.29-.32,4.89-3.36,6.24-5.15,18.21-24.1,38.89-47,61.49-68.09,22.2-21.07,45.45-42.77,70.07-63.24v122.17c0,49.76-12.01,59.2-77.21,59.2-2.57,0-2.57,10.3,0,10.3,27.45,0,62.63-1.72,99.52-1.72,21.22,0,40.44.5,57.96.95,1.17-4.44,4.11-8.18,8-10.96-36.21-4.05-42.8-18.07-42.8-57.78v-157.01c34.88-24.3,72.48-44.56,113.53-56.46,62.27-18.06,131.87-16.22,199.31-8.7v222.17c0,49.76-10.3,59.2-76.36,59.2-3.43,0-3.43,10.3,0,10.3,26.59,0,60.05-1.72,99.52-1.72,36.89,0,72.07,1.72,98.66,1.72,3.43,0,3.43-10.3,0-10.3-65.2,0-77.21-9.44-77.21-59.2v-216.47c12.64,1.79,25.13,3.67,37.39,5.54,30.42,4.36,60.65,10.89,89.83,19.42l.6.19c8.22,2.65,11.3,3.64,12.84.56.46-.87.54-2.03.2-2.95"/>
  <path class="st1" d="M1759.52,1086.98c0-8.58-.26-17.11-.76-25.59-.71-13.52-4.13-40.04-4.25-40-35.75-234.06-260.01-414.59-531.1-414.59-206.25,0-385.65,88.85-502.55,253.15-26.77,37.63-66.8,119.99-84.36,162.7l-86.1,211.79-175.07-368.91c-18.68-39.79,3.4-50.57,46.7-50.57,3.4,0,3.4-9.95,0-9.95-25.47,0-54.34,2.49-95.1,2.49-22.92,0-49.25-2.49-72.17-2.49-3.4,0-3.4,9.95,0,9.95,35.66,0,54.34,15.75,73.87,58.86l209.72,448.46c2.55,4.14,16.98,4.14,18.68,0l.08-.19c.03.34.06.68.09,1.02l135.57-305.15c28.3-58.22,56.44-105.36,70.33-124.26,127.11-172.92,275.2-254.9,478.35-254.9,275.59,0,499.47,199.29,501.63,444.59,0,.61.02,1.22.02,1.83,0,26.49-2.3,52.4-6.68,77.56-.27,1.54-.55,3.08-.84,4.61-.33,1.81-.68,3.62-1.03,5.43-1.76,8.7-3.77,17.31-6.04,25.8.04,0,.09.01.13.02-49.76,190.83-222.28,329.96-427.29,329.96-165.12,0-299.13-117.58-299.13-262.45,0-95.55,58.35-176.23,149.16-207.02-117.32,5.91-209.47,95.89-209.47,206.21,0,156.12,161.03,282.83,359.44,282.83,217.79,0,400.22-153.88,446.63-359.86,7.54-32.6,11.56-66.51,11.56-101.35"/>
</svg>