<?xml version="1.0" encoding="UTF-8"?>
<svg id="Layer_1" xmlns="http://www.w3.org/2000/svg" version="1.1" viewBox="0 0 460.8 460.8">
  <!-- Generator: Adobe Illustrator 30.0.0, SVG Export Plug-In . SVG Version: 2.1.1 Build 123)  -->
  <defs>
    <style>
      .st0 {
        fill: #fff;
      }
    </style>
  </defs>
  <path class="st0" d="M319.72,460.8h-178.64C63.29,460.8,0,397.51,0,319.72v-178.64C0,63.29,63.29,0,141.08,0h178.64c77.8,0,141.08,63.29,141.08,141.08v178.64c0,77.79-63.29,141.08-141.08,141.08ZM141.08,34.5c-58.76,0-106.57,47.81-106.57,106.57v178.64c0,58.76,47.81,106.57,106.57,106.57h178.64c58.77,0,106.58-47.81,106.58-106.57v-178.64c0-58.76-47.81-106.57-106.58-106.57h-178.64Z"/>
  <path class="st0" d="M230.4,346.96c-64.27,0-116.56-52.29-116.56-116.56s52.29-116.56,116.56-116.56,116.56,52.29,116.56,116.56-52.29,116.56-116.56,116.56ZM230.4,149.17c-44.79,0-81.23,36.44-81.23,81.23s36.44,81.23,81.23,81.23,81.23-36.44,81.23-81.23-36.44-81.23-81.23-81.23Z"/>
  <path class="st0" d="M389.99,101.16c0,16.76-13.59,30.35-30.35,30.35s-30.35-13.59-30.35-30.35,13.59-30.35,30.35-30.35,30.35,13.59,30.35,30.35Z"/>
</svg>