<?xml version="1.0" encoding="UTF-8"?>
<svg id="Layer_1" xmlns="http://www.w3.org/2000/svg" version="1.1" viewBox="0 0 1652.98 356.63">
  <!-- Generator: Adobe Illustrator 30.0.0, SVG Export Plug-In . SVG Version: 2.1.1 Build 123)  -->
  <defs>
    <style>
      .st0 {
        fill: #b17c5d;
      }

      .st1 {
        fill: #1b3b5a;
      }
    </style>
  </defs>
  <path class="st0" d="M369.5,8.27c.1-.58-.25-1.14-.83-1.27-12.81-2.85-23.83-3.82-37.21-5.55C234.15-11.16,127.86,59.79,99.39,167.98c-.17.63.15,1.29.74,1.56.09.04.18.09.28.13.49.25,1.08.18,1.47-.2.04-.04.06-.06.07-.07,5.58-12.97,13.38-37.63,33.6-62.85C172.11,60.94,213.24,28.57,272.52,14.78c19.25-4.48,48.63-11.64,96.07-5.29.43.06.81-.3.86-.73.02-.16.04-.33.07-.49"/>
  <path class="st0" d="M404.27,129.08c-.35-.94-2.94-2.07-3.39-2.26-6.53-3.26-13.57-5.5-20.38-7.66-2.83-.9-5.76-1.83-8.62-2.82-4.43-1.54-8.92-2.93-13.44-4.17v-49.29c0-.24,0-.46,0-.69-4.87-.65-9.74-1.37-14.59-2.19.05,1.08.07,2.22.07,3.44v45.37c-26.13-4.98-53.13-4.14-78.96,5.97-7.91,3.1-15.54,7-22.81,11.56v-57.21c-4.94,1.85-9.86,3.76-14.79,5.65v62.13c-19.11,15.41-34.83,35.32-45.4,56.39-.27.42-1.41,2.37-.31,3.23.17.13.4.21.62.23.09,0,.18,0,.27,0,.74-.1,1.59-1.09,2.03-1.67,5.92-7.84,12.65-15.29,20-22.15,7.22-6.85,14.79-13.91,22.79-20.57v39.74c0,16.19-3.91,19.26-25.12,19.26-.84,0-.84,3.35,0,3.35,8.93,0,20.37-.56,32.37-.56,6.9,0,13.15.16,18.85.31.38-1.44,1.34-2.66,2.6-3.56-11.78-1.32-13.92-5.88-13.92-18.79v-51.07c11.35-7.91,23.58-14.49,36.93-18.37,20.26-5.87,42.89-5.28,64.83-2.83v72.27c0,16.19-3.35,19.26-24.84,19.26-1.12,0-1.12,3.35,0,3.35,8.65,0,19.54-.56,32.37-.56,12,0,23.44.56,32.09.56,1.12,0,1.12-3.35,0-3.35-21.21,0-25.12-3.07-25.12-19.26v-70.41c4.11.58,8.17,1.19,12.16,1.8,9.9,1.42,19.73,3.54,29.22,6.32l.2.06c2.67.86,3.68,1.18,4.18.18.15-.28.17-.66.06-.96"/>
  <path class="st1" d="M490.3,206.61c0-2.79-.09-5.57-.25-8.32-.23-4.4-1.34-13.02-1.38-13.01-11.63-76.14-84.58-134.86-172.76-134.86-67.09,0-125.45,28.9-163.47,82.35-8.71,12.24-21.73,39.03-27.44,52.93l-28.01,68.89-56.95-120c-6.08-12.94,1.1-16.45,15.19-16.45,1.11,0,1.11-3.24,0-3.24-8.29,0-17.68.81-30.93.81-7.46,0-16.02-.81-23.48-.81-1.1,0-1.1,3.24,0,3.24,11.6,0,17.68,5.12,24.03,19.15l68.22,145.88c.83,1.35,5.52,1.35,6.08,0l.02-.06c.01.11.02.22.03.33l44.1-99.26c9.21-18.94,18.36-34.27,22.88-40.42,41.35-56.25,89.52-82.91,155.6-82.91,89.64,0,162.47,64.83,163.17,144.62,0,.2,0,.4,0,.59,0,8.62-.75,17.05-2.17,25.23-.09.5-.18,1-.27,1.5-.11.59-.22,1.18-.34,1.77-.57,2.83-1.23,5.63-1.97,8.39.01,0,.03,0,.04,0-16.19,62.07-72.3,107.33-138.99,107.33-53.71,0-97.3-38.25-97.3-85.37,0-31.08,18.98-57.32,48.52-67.34-38.16,1.92-68.14,31.19-68.14,67.08,0,50.78,52.38,92,116.92,92,70.84,0,130.18-50.05,145.28-117.05,2.45-10.6,3.76-21.64,3.76-32.97"/>
  <path class="st1" d="M632.71,304.52h12.9c9.28,0,15.08,3.48,17.39,10.44.74,2.24,1.12,4.88,1.12,7.91s-.45,5.79-1.34,8.28c-1.82,5.03-5.11,8.45-9.87,10.27-2.27.85-4.8,1.28-7.59,1.28h-12.6v-38.18ZM644.87,310.07l-4.19.36v25.75c1.08.29,2.56.43,4.47.43s3.47-.26,4.7-.77,2.29-1.31,3.16-2.38c1.85-2.27,2.78-5.67,2.78-10.21,0-4.82-.89-8.24-2.68-10.28-1.7-1.94-4.45-2.91-8.24-2.91"/>
  <rect class="st1" x="681.75" y="304.52" width="7.94" height="38.16"/>
  <path class="st1" d="M718.41,304.52h7.99l14.07,38.16h-8.61l-2.53-7.99h-13.89l-2.48,7.99h-8.48l13.94-38.16ZM727.51,329l-4.09-12.95-1.07-3.9-1.09,3.9-4.04,12.95h10.3Z"/>
  <path class="st1" d="M766.22,335.59c1.2.7,2.84,1.05,4.94,1.05s3.97-.31,5.64-.94v-7.72h-5.78v-6.03h13.27v18.14c-.56,0-1.21.14-1.93.41-.73.28-1.61.57-2.65.89-2.75.87-5.64,1.3-8.68,1.3s-5.68-.45-7.92-1.34c-2.23-.89-4.12-2.17-5.66-3.82-3.14-3.36-4.71-7.94-4.71-13.73,0-6.4,1.82-11.29,5.46-14.67,3.31-3.08,7.77-4.62,13.37-4.62,2.45,0,4.29.12,5.53.36,1.24.24,2.2.45,2.88.62.68.17,1.43.34,2.26.51l-.25,6.85c-2.15-1.05-4.41-1.69-6.77-1.93-1.04-.1-2.32-.15-3.82-.15s-2.92.28-4.23.85c-1.32.56-2.44,1.37-3.36,2.43-1.9,2.2-2.85,5.23-2.85,9.1s.77,7.15,2.31,9.56c.78,1.22,1.77,2.18,2.97,2.89"/>
  <polygon class="st1" points="802.14 304.52 809.46 304.52 823.53 327.04 826.38 332.77 825.66 323.69 825.66 304.52 833.01 304.52 833.01 342.67 825.09 342.67 811.62 321.31 808.62 315.28 809.49 324.29 809.49 342.67 802.14 342.67 802.14 304.52"/>
  <path class="st1" d="M860.16,341.4c-4.33-1.85-7.27-5.17-8.81-9.97-.73-2.31-1.09-4.99-1.09-8.03s.47-5.79,1.43-8.22c.95-2.43,2.22-4.41,3.81-5.93,3.26-3.14,7.67-4.72,13.22-4.72,4.96,0,8.92,1.7,11.86,5.11,2.93,3.37,4.39,7.85,4.39,13.41,0,6.47-1.7,11.43-5.09,14.87-3.14,3.19-7.43,4.79-12.85,4.79-2.55,0-4.84-.43-6.87-1.3M860.71,333c.76,1.19,1.72,2.12,2.88,2.8,1.16.68,2.47,1.01,3.94,1.01s2.78-.26,3.91-.79c1.13-.53,2.1-1.35,2.89-2.46,1.65-2.32,2.48-5.73,2.48-10.25,0-3.82-.73-6.87-2.18-9.15-1.56-2.43-3.76-3.65-6.6-3.65-4.47,0-7.41,2.36-8.83,7.07-.51,1.66-.77,3.56-.77,5.67s.19,3.98.57,5.57c.38,1.59.95,2.98,1.71,4.17M864.73,301.29c.46-.4,1.35-1.25,2.66-2.55,1.31-1.31,2.22-2.22,2.73-2.75,1.14-1.24,1.79-2.05,1.93-2.43l5.38,3.25c-1.92,2.45-4.23,4.6-6.92,6.45-.83.56-1.55.94-2.16,1.14l-3.62-3.1Z"/>
  <path class="st1" d="M914.41,310.42c-3.77,0-5.66,1.28-5.66,3.83,0,1.26.51,2.33,1.54,3.21.74.64,2.13,1.49,4.17,2.56,2.03,1.07,3.68,1.99,4.95,2.75s2.36,1.6,3.29,2.51c1.97,1.91,2.95,4.25,2.95,7.01,0,3.3-1.2,5.88-3.6,7.73-2.3,1.78-5.43,2.67-9.38,2.67-3.51,0-6.72-.5-9.65-1.51-.78-.26-1.34-.5-1.69-.72l1.12-6.29c1.87,1.03,4.14,1.73,6.8,2.12.94.15,1.93.22,2.95.22s1.89-.08,2.6-.24c.71-.16,1.28-.4,1.71-.71.79-.59,1.19-1.54,1.19-2.85s-.5-2.34-1.49-3.19c-.86-.75-2.23-1.59-4.12-2.51-1.89-.92-3.2-1.6-3.96-2.04-.75-.43-1.48-.91-2.17-1.43-.69-.52-1.34-1.09-1.95-1.7-.6-.61-1.13-1.29-1.57-2.02-.96-1.6-1.44-3.34-1.44-5.2s.35-3.44,1.05-4.72c.7-1.28,1.66-2.33,2.87-3.13,2.3-1.5,5.38-2.26,9.25-2.26,3.21,0,5.99.5,8.34,1.49.61.25,1.08.48,1.41.69l-1.29,6.13c-2.5-1.61-5.24-2.41-8.24-2.41"/>
  <polygon class="st1" points="949.23 310.57 938.42 310.57 938.42 304.52 967.94 304.52 967.94 310.57 957.17 310.57 957.17 342.67 949.23 342.67 949.23 310.57"/>
  <rect class="st1" x="983.83" y="304.52" width="7.94" height="38.16"/>
  <path class="st1" d="M1009.4,323.51c0-2.97.48-5.64,1.44-8.02.96-2.38,2.27-4.39,3.94-6.01,3.39-3.31,7.77-4.96,13.12-4.96,2.98,0,5.79.35,8.43,1.04.63.17,1.24.31,1.84.42l-1.14,6.95c-1.19-.66-2.14-1.11-2.85-1.34-1.67-.55-3.44-.82-5.3-.82s-3.45.28-4.78.85c-1.32.56-2.47,1.37-3.45,2.43-2.08,2.28-3.13,5.34-3.13,9.17s1.01,7.14,3.03,9.59c2.1,2.53,4.91,3.79,8.44,3.79,2.42,0,4.85-.52,7.32-1.56.63-.28,1.11-.54,1.44-.78l.02,6.46c-2.41.96-4.32,1.53-5.72,1.71-1.4.18-2.67.27-3.81.27-5.76,0-10.35-1.75-13.79-5.26-3.37-3.44-5.06-8.08-5.06-13.93"/>
  <path class="st1" d="M1061.64,341.4c-4.33-1.85-7.27-5.18-8.81-9.97-.73-2.31-1.09-4.99-1.09-8.04s.47-5.79,1.43-8.22c.95-2.43,2.22-4.41,3.81-5.93,3.26-3.15,7.67-4.72,13.22-4.72,4.96,0,8.92,1.71,11.86,5.11,2.93,3.37,4.39,7.85,4.39,13.41,0,6.47-1.7,11.43-5.09,14.87-3.14,3.19-7.43,4.79-12.85,4.79-2.55,0-4.84-.43-6.87-1.3M1062.19,333c.76,1.19,1.72,2.12,2.88,2.8,1.16.68,2.47,1.01,3.94,1.01s2.78-.26,3.91-.79c1.13-.53,2.1-1.35,2.89-2.46,1.65-2.32,2.48-5.73,2.48-10.25,0-3.82-.73-6.87-2.18-9.15-1.55-2.43-3.76-3.65-6.6-3.65-4.46,0-7.41,2.36-8.83,7.07-.51,1.66-.77,3.56-.77,5.68s.19,3.98.57,5.57c.38,1.59.95,2.98,1.71,4.17"/>
  <path class="st1" d="M1153.89,327.61c-1.27,1.16-2.85,2.06-4.73,2.68-1.88.62-3.93.93-6.17.93h-4.64v11.46h-7.89v-38.16h13.52c6.76,0,11.05,2.35,12.85,7.04.63,1.65.94,3.6.94,5.85s-.33,4.22-.99,5.91c-.66,1.69-1.63,3.12-2.9,4.29M1149.94,317.69c0-2.68-.62-4.62-1.85-5.83-1.23-1.21-2.9-1.81-4.99-1.81s-3.68.18-4.75.55v14.46c.98.13,2.15.2,3.51.2s2.5-.12,3.4-.35c.9-.23,1.7-.65,2.39-1.26,1.52-1.29,2.28-3.28,2.28-5.96"/>
  <path class="st1" d="M1182.01,341.4c-4.33-1.85-7.27-5.18-8.81-9.97-.73-2.31-1.09-4.99-1.09-8.04s.47-5.79,1.43-8.22c.95-2.43,2.22-4.41,3.81-5.93,3.26-3.15,7.67-4.72,13.22-4.72,4.96,0,8.92,1.71,11.86,5.11,2.93,3.37,4.39,7.85,4.39,13.41,0,6.47-1.7,11.43-5.09,14.87-3.14,3.19-7.43,4.79-12.85,4.79-2.55,0-4.84-.43-6.87-1.3M1182.56,333c.76,1.19,1.72,2.12,2.88,2.8,1.16.68,2.47,1.01,3.94,1.01s2.77-.26,3.91-.79c1.13-.53,2.1-1.35,2.89-2.46,1.65-2.32,2.48-5.73,2.48-10.25,0-3.82-.73-6.87-2.18-9.15-1.55-2.43-3.76-3.65-6.6-3.65-4.46,0-7.41,2.36-8.83,7.07-.51,1.66-.77,3.56-.77,5.68s.19,3.98.57,5.57c.38,1.59.95,2.98,1.71,4.17"/>
  <path class="st1" d="M1236.95,328.36h-4.99v14.31h-7.89v-38.16h13.43c1.93,0,3.71.18,5.35.53,1.64.36,3.08.97,4.34,1.85,2.76,1.9,4.14,4.91,4.14,9.03,0,5.66-2.09,9.32-6.28,10.99,1.22,1.04,2.47,3,3.75,5.88.53,1.19,1.05,2.41,1.57,3.66.52,1.25,1.1,2.41,1.72,3.48l1.56,2.73h-8.78c-.28-.4-.54-.85-.77-1.36-.23-.51-.48-1.05-.76-1.61-.27-.56-.55-1.27-.84-2.13-.29-.86-.57-1.72-.86-2.58-.28-.86-.57-1.69-.87-2.49-.3-.8-.63-1.51-.99-2.12-.79-1.34-1.74-2.01-2.85-2.01M1236.43,310.2c-1.72,0-3.21.15-4.47.46v12.07c.79.1,1.77.15,2.93.15h2.26c2.22,0,3.9-.69,5.04-2.07.99-1.19,1.49-2.78,1.49-4.76,0-1.78-.41-3.13-1.24-4.06-1.06-1.19-3.06-1.79-6-1.79"/>
  <rect class="st1" x="1296.92" y="304.52" width="7.94" height="38.16"/>
  <polygon class="st1" points="1325.76 304.52 1336.85 304.52 1341.89 324.64 1343.8 333.1 1345.24 324.64 1349.78 304.52 1360.55 304.52 1365.06 342.67 1357.32 342.67 1355.46 322.43 1354.79 310.87 1352.01 322.3 1346.6 342.67 1340.35 342.67 1334.37 322.3 1331.57 310.87 1329.06 342.67 1321.75 342.67 1325.76 304.52"/>
  <path class="st1" d="M1390.53,304.52h7.99l14.07,38.16h-8.61l-2.53-7.99h-13.89l-2.48,7.99h-8.48l13.94-38.16ZM1399.64,329l-4.09-12.95-1.07-3.9-1.09,3.9-4.04,12.95h10.3Z"/>
  <path class="st1" d="M1438.34,335.59c1.2.7,2.84,1.05,4.94,1.05s3.97-.31,5.64-.94v-7.72h-5.78v-6.03h13.27v18.14c-.56,0-1.21.14-1.94.41-.73.28-1.61.57-2.65.89-2.75.87-5.64,1.3-8.68,1.3s-5.68-.45-7.92-1.34c-2.23-.89-4.12-2.17-5.66-3.82-3.14-3.36-4.71-7.94-4.71-13.73,0-6.4,1.82-11.29,5.46-14.67,3.31-3.08,7.77-4.62,13.37-4.62,2.45,0,4.29.12,5.53.36,1.24.24,2.2.45,2.88.62.68.17,1.43.34,2.26.51l-.25,6.85c-2.15-1.05-4.41-1.69-6.77-1.93-1.04-.1-2.32-.15-3.82-.15s-2.92.28-4.23.85c-1.31.56-2.44,1.37-3.36,2.43-1.9,2.2-2.85,5.23-2.85,9.1s.77,7.15,2.31,9.56c.78,1.22,1.77,2.18,2.96,2.89"/>
  <polygon class="st1" points="1474.27 304.52 1497.29 304.52 1497.29 310.57 1482.16 310.57 1482.16 320.34 1493.77 320.34 1493.77 326.32 1482.16 326.32 1482.16 336.45 1498.9 336.45 1498.9 342.67 1474.27 342.67 1474.27 304.52"/>
  <polygon class="st1" points="1516.63 304.52 1527.72 304.52 1532.76 324.64 1534.67 333.1 1536.11 324.64 1540.65 304.52 1551.42 304.52 1555.93 342.67 1548.19 342.67 1546.33 322.43 1545.66 310.87 1542.88 322.3 1537.47 342.67 1531.22 342.67 1525.24 322.3 1522.44 310.87 1519.93 342.67 1512.61 342.67 1516.63 304.52"/>
  <polygon class="st1" points="625.16 196.67 547.74 37.68 547.69 37.57 533.45 37.57 618.56 212.35 618.73 212.69 631.6 212.69 716.74 37.86 716.88 37.57 702.64 37.57 625.16 196.67"/>
  <path class="st1" d="M805.94,64.05c-40.52,0-73.48,33.84-73.48,75.43s32.96,75.43,73.48,75.43c22.9,0,44.09-10.67,58.13-29.28l.84-1.12-10.22-7.71-.84,1.12c-11.6,15.37-29.06,24.19-47.91,24.19-30.76,0-57.24-24.68-60.37-56.23h133.85v-6.4c0-41.59-32.96-75.43-73.48-75.43M805.94,76.85c30.77,0,57.24,24.68,60.37,56.23h-120.73c3.13-31.55,29.6-56.23,60.37-56.23"/>
  <path class="st1" d="M1001.88,199.79c-12.5,3.17-25.54.42-35.76-7.54-10.49-8.16-16.5-20.54-16.5-33.96v-66.15h25.12v-12.8h-25.12v-31.37h-12.8v31.37h-26.06v12.8h26.06v66.15c0,17.4,7.82,33.46,21.44,44.06,9.69,7.54,21.22,11.53,33.34,11.53,4.5,0,9.02-.57,13.43-1.68l1.36-.34-3.15-12.41-1.36.35Z"/>
  <polygon class="st0" points="1171.25 119.02 1062.13 119.02 1062.13 37.57 1049.33 37.57 1049.33 212.69 1062.13 212.69 1062.13 131.81 1171.25 131.81 1171.25 212.69 1184.05 212.69 1184.05 37.57 1171.25 37.57 1171.25 119.02"/>
  <path class="st0" d="M1309.84,64.59c-41.33,0-74.96,33.63-74.96,74.96s33.63,74.96,74.96,74.96,74.96-33.63,74.96-74.96-33.63-74.96-74.96-74.96M1309.84,201.72c-34.28,0-62.16-27.89-62.16-62.16s27.89-62.16,62.16-62.16,62.16,27.89,62.16,62.16-27.89,62.16-62.16,62.16"/>
  <path class="st0" d="M1465.14,34.76h0c-10.85,10.02-17.07,24.56-17.07,39.9v28.15h-26.01v12.8h26.01v97.09h12.8v-97.09h59.81v-12.8h-59.81v-28.15c0-11.78,4.72-22.89,12.96-30.49,7.29-6.73,16.55-10.01,26.06-9.25l22.14,1.78,1.03-12.76-22.14-1.78c-13.1-1.06-25.81,3.41-35.77,12.6"/>
  <path class="st0" d="M1603.75,44.16c7.29-6.73,16.55-10.01,26.06-9.25l22.14,1.78,1.03-12.76-22.14-1.78c-13.11-1.06-25.81,3.42-35.77,12.6-10.85,10.02-17.07,24.56-17.07,39.9v28.15h-26.01v12.8h26.01v97.09h12.8v-97.09h59.81v-12.8h-59.81v-28.15c0-11.78,4.72-22.89,12.96-30.49"/>
</svg>