<?xml version="1.0" encoding="UTF-8"?>
<svg id="Layer_1" xmlns="http://www.w3.org/2000/svg" version="1.1" viewBox="0 0 388.52 388.52">
  <!-- Generator: Adobe Illustrator 30.0.0, SVG Export Plug-In . SVG Version: 2.1.1 Build 123)  -->
  <defs>
    <style>
      .st0 {
        fill: #fff;
        fill-rule: evenodd;
      }
    </style>
  </defs>
  <path class="st0" d="M388.52,189.26c0,104.51-85.39,189.25-190.72,189.25-33.45,0-64.88-8.54-92.2-23.55L0,388.52l34.42-101.53c-17.37-28.52-27.36-61.97-27.36-97.72C7.06,84.73,92.45,0,197.8,0s190.72,84.73,190.72,189.26h0ZM197.8,30.14c-88.44,0-160.36,71.37-160.36,159.12,0,34.8,11.34,67.05,30.54,93.29l-20.02,59.08,61.61-19.58c25.31,16.61,55.64,26.31,88.23,26.31,88.4,0,160.34-71.37,160.34-159.1S286.2,30.14,197.8,30.14h0ZM294.11,232.85c-1.18-1.94-4.3-3.1-8.96-5.42-4.68-2.32-27.68-13.55-31.96-15.09-4.28-1.54-7.42-2.32-10.52,2.31-3.12,4.64-12.08,15.09-14.82,18.19-2.72,3.1-5.44,3.48-10.12,1.16-4.68-2.31-19.76-7.23-37.61-23.01-13.89-12.31-23.27-27.49-26.01-32.13-2.71-4.64-.27-7.14,2.05-9.46,2.11-2.09,4.68-5.42,7.02-8.12,2.34-2.72,3.12-4.66,4.68-7.76,1.56-3.1.78-5.8-.4-8.12-1.16-2.31-10.52-25.15-14.42-34.44-3.87-9.27-7.78-8.92-10.52-8.92s-7.77.81-7.77.81c0,0-9.37,1.16-13.65,5.8-4.28,4.64-16.36,15.87-16.36,38.68s16.74,44.9,19.08,47.97c2.34,3.1,32.33,51.47,79.87,70.05,47.53,18.57,47.53,12.37,56.11,11.59,8.56-.75,27.65-11.21,31.56-22.05,3.9-10.84,3.9-20.13,2.74-22.05h0ZM294.11,232.85"/>
</svg>